# xmcd CD database file
#
# Track frame offsets:
#	150
#	19804
#	49445
#	64454
#	89547
#	114003
#	134285
#	163006
#	193019
#	213163
#
# Disc length: 2945 seconds
#
# Revision: 1
# Processed by: cddbd v1.5PL3 Copyright (c) Steve Scherf et al.
# Submitted via: CDex 1.51
#
DISCID=8d0b7f0a
DTITLE=JM PAYNE - SENSEI
DYEAR=2003
DGENRE=Jazz
TTITLE0=USTA B CHICKEN LICKIN
TTITLE1=NICE TO EAT AGAIN
TTITLE2=SCRAM
TTITLE3=SENSEI
TTITLE4=COOL IT
TTITLE5=STEAM ROLLER
TTITLE6=PEACHES
TTITLE7=CONCORDANCE
TTITLE8=P.BRAIN
TTITLE9=ONION PEAL
EXTD=YEAR: 2003
EXTT0=
EXTT1=
EXTT2=
EXTT3=
EXTT4=
EXTT5=
EXTT6=
EXTT7=
EXTT8=
EXTT9=
PLAYORDER=
